# xmcd
#
# Track frame offsets: 
#        150
#        10928
#        25134
#
# Disc length: 541 seconds
#
# Revision: 0
# Processed by: cddbd v1.4PL0 Copyright (c) Steve Scherf et al.
# Submitted via: ExactAudioCopy v0.95a3
#
DISCID=17021b03
DTITLE=Robert Bradley's Blackwater Surprise - Wish You A Merry Christm
DTITLE=as
DYEAR=2001
DGENRE=Blues
TTITLE0=Please Come Home For Christmas
TTITLE1=Detroit Christmas
TTITLE2=Go Tell It On The Mountain
EXTD=
EXTT0=
EXTT1=
EXTT2=
PLAYORDER=
